# xmcd CD database file
#
# Track frame offsets:
#	182
#	27600
#	49430
#	82550
#	106895
#	128735
#	160265
#	197705
#	226850
#	262795
#
# Disc length: 3814 seconds
#
# Revision: 0
# Processed by: cddbd v1.5.2PL0 Copyright (c) Steve Scherf et al.
# Submitted via: CDex 1.70beta2
#
DISCID=750ee40a
DTITLE=Charles Thomas - The Finishing Touch
DYEAR=1994
DGENRE=Jazz
TTITLE0=Cabu
TTITLE1=Ladybird
TTITLE2=Pick Yourself Up
TTITLE3=Somewhere
TTITLE4=Liza
TTITLE5=Born To Be
TTITLE6=Without A Song
TTITLE7=For Carl
TTITLE8=If I Could Write A Book
TTITLE9=Bessie's Blues
EXTD=YEAR: 1994
EXTT0=
EXTT1=
EXTT2=
EXTT3=
EXTT4=
EXTT5=
EXTT6=
EXTT7=
EXTT8=
EXTT9=
PLAYORDER=
